<svg width="33" height="33" viewBox="0 0 33 33" fill="none" xmlns="http://www.w3.org/2000/svg">
<path d="M10.1538 13.1154C13.1914 13.1154 15.6538 10.6529 15.6538 7.61536C15.6538 4.57779 13.1914 2.11536 10.1538 2.11536C7.11627 2.11536 4.65384 4.57779 4.65384 7.61536C4.65384 10.6529 7.11627 13.1154 10.1538 13.1154Z" fill="#ABCEFB"/>
<path d="M22.8462 25.8077C25.8837 25.8077 28.3462 23.3453 28.3462 20.3077C28.3462 17.2702 25.8837 14.8077 22.8462 14.8077C19.8086 14.8077 17.3462 17.2702 17.3462 20.3077C17.3462 23.3453 19.8086 25.8077 22.8462 25.8077Z" fill="#0034BD"/>
<path d="M15.6538 14.8077H4.65384V25.8077H15.6538V14.8077Z" fill="#0A61F7"/>
<path d="M17.3462 2.11536C23.4213 2.11536 28.3462 7.04023 28.3462 13.1154H17.3462V2.11536Z" fill="#6EA7FC"/>
<path d="M28.3461 27.5H4.65384V30.8846H28.3461V27.5Z" fill="#ABCEFB"/>
</svg>
