<svg width="32" height="32" viewBox="0 0 32 32" fill="none" xmlns="http://www.w3.org/2000/svg">
<path d="M27.4872 11.4872H4.51282V14.7692H27.4872V11.4872Z" fill="#FFD56B"/>
<path d="M4.51282 16.4103C4.51282 17.9188 4.80993 19.4125 5.38724 20.8062C5.96451 22.1999 6.81066 23.4662 7.87733 24.5329C8.944 25.5996 10.2103 26.4458 11.6041 27.023C12.9977 27.6004 14.4915 27.8975 16 27.8975C17.5085 27.8975 19.0023 27.6004 20.3959 27.023C21.7897 26.4458 23.056 25.5996 24.1227 24.5329C25.1893 23.4662 26.0355 22.1999 26.6128 20.8062C27.1901 19.4125 27.4872 17.9188 27.4872 16.4103H16H4.51282Z" fill="#FEC33E"/>
<path d="M10.6667 9.84615C10.6667 9.14576 10.8046 8.45222 11.0727 7.80517C11.3407 7.15811 11.7335 6.57017 12.2288 6.07491C12.724 5.57965 13.312 5.18683 13.959 4.91881C14.6061 4.65079 15.2996 4.51282 16 4.51282C16.7004 4.51282 17.3939 4.65079 18.041 4.91881C18.688 5.18683 19.276 5.57969 19.7712 6.07491C20.2665 6.57017 20.6593 7.15811 20.9273 7.80517C21.1954 8.45226 21.3333 9.14576 21.3333 9.84615H16H10.6667Z" fill="#D98822"/>
</svg>
