<svg width="32" height="32" viewBox="0 0 32 32" fill="none" xmlns="http://www.w3.org/2000/svg">
<path d="M14.7692 26.2565C21.1134 26.2565 26.2564 21.1135 26.2564 14.7693C26.2564 8.42509 21.1134 3.2821 14.7692 3.2821C8.42504 3.2821 3.28206 8.42509 3.28206 14.7693C3.28206 21.1135 8.42504 26.2565 14.7692 26.2565Z" fill="#FF9A7D"/>
<path d="M23.3846 28.7179C26.3301 28.7179 28.718 26.3301 28.718 23.3846C28.718 20.4391 26.3301 18.0513 23.3846 18.0513C20.4391 18.0513 18.0513 20.4391 18.0513 23.3846C18.0513 26.3301 20.4391 28.7179 23.3846 28.7179Z" fill="#FED7C7"/>
<path d="M14.7692 3.2821H3.28206V14.7693H14.7692V3.2821Z" fill="#C5461E"/>
</svg>
